<svg id="Layer_1" data-name="Layer 1" xmlns="http://www.w3.org/2000/svg" viewBox="0 0 239.19 209.48"><defs><style>.cls-1{fill:#ea2027;}</style></defs><path class="cls-1" d="M177.25,190.9l11.93-1.55q7.13-.93,14.64-2t14.57-2.17q7-1.08,11.54-2,9.28-1.86,19.75-4.34t21.15-4.72q10.69-2.25,21.22-3.72a146,146,0,0,1,20.14-1.47c.73,0,2,0,3.8.07s3.85.18,6.12.39l.2,0a2.52,2.52,0,0,0,2.43-3.76l-7.56-13.1a2.52,2.52,0,0,0-2.18-1.26H197a2.52,2.52,0,0,0-2.18,1.26l-20,34.67a2.49,2.49,0,0,0,2.49,3.71Z" transform="translate(-136.41 -151.26)"/><path class="cls-1" d="M341.13,194a4.65,4.65,0,0,1-.82.6,7.92,7.92,0,0,1-3.71,1c-1.4,0-2.77.08-4.11.08q-5.26,0-9.53-.08t-8.52-.23q-4.26-.15-9-.23c-3.16-.06-6.8-.08-10.93-.08A124.18,124.18,0,0,0,279,196.24q-9,1.15-17.74,2.87t-15.88,3.64q-7.12,1.94-9.76,3.48a8.61,8.61,0,0,0-2.32,2.25,16.15,16.15,0,0,0-1.86,3.25,29.87,29.87,0,0,0-1.32,3.64,11.93,11.93,0,0,0-.54,3.26q-1.56,16.43-3.49,32.53t-3.56,32q-1.63,15.88-2.79,31.45t-1.16,30.91a64.92,64.92,0,0,0,.69,7.82v.07a8.49,8.49,0,0,0,8.43,7.33h83.74a8.58,8.58,0,0,0,7.44-4.3l55.51-96.15a8.54,8.54,0,0,0,0-8.58Z" transform="translate(-136.41 -151.26)"/><path class="cls-1" d="M191.81,351.94q-.15-5.34-.15-9.75c0-2.95,0-5.45.08-7.52s.07-3.41.07-4q0-4.65.93-14.72t2.33-22.54q1.4-12.47,3-25.72t3-24.24q1.39-11,2.32-18.13t.93-7.28a5,5,0,0,0-1.08-3.57,5,5,0,0,0-2.48-1.39,7.1,7.1,0,0,0-2.56-.15c-.77.1-1.21.15-1.31.15a137,137,0,0,0-15.19,1.08q-9.28,1.1-19.83,2.41h0a8.79,8.79,0,0,0-6.54,4.32l-17.74,30.72a8.84,8.84,0,0,0,0,8.84l54.34,94.11C191.89,353.67,191.84,352.8,191.81,351.94Z" transform="translate(-136.41 -151.26)"/></svg>